<svg width="1180" height="610" viewBox="0 0 1180 610" xmlns="http://www.w3.org/2000/svg">
  <defs>
    <clipPath id="outerClip"><rect width="1180" height="610" rx="28" ry="28"/></clipPath>
    <clipPath id="leftClip"><rect x="24" y="24" width="430" height="562" rx="20" ry="20"/></clipPath>
    <clipPath id="rightClip"><rect x="470" y="24" width="686" height="562" rx="20" ry="20"/></clipPath>

    <!-- Background base -->
    <radialGradient id="bgGlowBlue" cx="20%" cy="15%" r="55%">
      <stop offset="0%" stop-color="#2563EB" stop-opacity="0.28"/>
      <stop offset="100%" stop-color="#2563EB" stop-opacity="0"/>
    </radialGradient>
    <radialGradient id="bgGlowPurple" cx="85%" cy="20%" r="55%">
      <stop offset="0%" stop-color="#7C3AED" stop-opacity="0.26"/>
      <stop offset="100%" stop-color="#7C3AED" stop-opacity="0"/>
    </radialGradient>
    <radialGradient id="bgGlowEmerald" cx="60%" cy="95%" r="60%">
      <stop offset="0%" stop-color="#10B981" stop-opacity="0.20"/>
      <stop offset="100%" stop-color="#10B981" stop-opacity="0"/>
    </radialGradient>

    <!-- Accent / border gradient -->
    <linearGradient id="accentGrad" x1="0%" y1="0%" x2="100%" y2="100%">
      <stop offset="0%" stop-color="#7C3AED"/>
      <stop offset="50%" stop-color="#22D3EE"/>
      <stop offset="100%" stop-color="#10B981"/>
    </linearGradient>

    <!-- ASCII gradient, animated -->
    <linearGradient id="asciiGrad" x1="0%" y1="0%" x2="100%" y2="100%">
      <stop offset="0%" stop-color="#7C3AED">
        <animate attributeName="stop-color" values="#7C3AED;#22D3EE;#10B981;#22D3EE;#7C3AED" dur="6s" repeatCount="indefinite"/>
      </stop>
      <stop offset="50%" stop-color="#22D3EE">
        <animate attributeName="stop-color" values="#22D3EE;#10B981;#7C3AED;#10B981;#22D3EE" dur="6s" repeatCount="indefinite"/>
      </stop>
      <stop offset="100%" stop-color="#10B981">
        <animate attributeName="stop-color" values="#10B981;#7C3AED;#22D3EE;#7C3AED;#10B981" dur="6s" repeatCount="indefinite"/>
      </stop>
    </linearGradient>

    <linearGradient id="panelFill" x1="0%" y1="0%" x2="100%" y2="100%">
      <stop offset="0%" stop-color="#0F172A" stop-opacity="0.92"/>
      <stop offset="100%" stop-color="#0F172A" stop-opacity="0.78"/>
    </linearGradient>

    <linearGradient id="glassSheen" x1="0%" y1="0%" x2="0%" y2="100%">
      <stop offset="0%" stop-color="#FFFFFF" stop-opacity="0.08"/>
      <stop offset="35%" stop-color="#FFFFFF" stop-opacity="0.02"/>
      <stop offset="100%" stop-color="#FFFFFF" stop-opacity="0"/>
    </linearGradient>

    <linearGradient id="scanGrad" x1="0%" y1="0%" x2="0%" y2="100%">
      <stop offset="0%" stop-color="#22D3EE" stop-opacity="0"/>
      <stop offset="50%" stop-color="#22D3EE" stop-opacity="0.35"/>
      <stop offset="100%" stop-color="#22D3EE" stop-opacity="0"/>
    </linearGradient>

    <!-- Glow filter -->
    <filter id="glowSoft" x="-60%" y="-60%" width="220%" height="220%">
      <feGaussianBlur stdDeviation="3.2" result="b"/>
      <feMerge>
        <feMergeNode in="b"/>
        <feMergeNode in="SourceGraphic"/>
      </feMerge>
    </filter>
    <filter id="glowStrong" x="-80%" y="-80%" width="260%" height="260%">
      <feGaussianBlur stdDeviation="6" result="b"/>
      <feMerge>
        <feMergeNode in="b"/>
        <feMergeNode in="b"/>
        <feMergeNode in="SourceGraphic"/>
      </feMerge>
    </filter>
    <filter id="blurBig" x="-50%" y="-50%" width="200%" height="200%">
      <feGaussianBlur stdDeviation="28"/>
    </filter>

    <!-- Noise texture -->
    <filter id="noiseFilter" x="0" y="0" width="100%" height="100%">
      <feTurbulence type="fractalNoise" baseFrequency="0.85" numOctaves="2" stitchTiles="stitch" result="noise"/>
      <feColorMatrix in="noise" type="matrix" values="0 0 0 0 1  0 0 0 0 1  0 0 0 0 1  0 0 0 0.02 0"/>
    </filter>
  </defs>

  <g clip-path="url(#outerClip)">
    <!-- base background -->
    <rect width="1180" height="610" fill="#030712"/>
    <rect width="1180" height="610" fill="url(#bgGlowBlue)">
      <animate attributeName="opacity" values="0.6;1;0.6" dur="7s" repeatCount="indefinite"/>
    </rect>
    <rect width="1180" height="610" fill="url(#bgGlowPurple)">
      <animate attributeName="opacity" values="1;0.5;1" dur="8s" repeatCount="indefinite"/>
    </rect>
    <rect width="1180" height="610" fill="url(#bgGlowEmerald)">
      <animate attributeName="opacity" values="0.5;1;0.5" dur="9s" repeatCount="indefinite"/>
    </rect>
    <rect width="1180" height="610" filter="url(#noiseFilter)" opacity="0.5"/>

    <!-- floating background particles -->
    <g fill="#22D3EE">
      <circle cx="140" cy="520" r="1.6" opacity="0.6"><animate attributeName="cy" values="520;60;520" dur="14s" repeatCount="indefinite"/><animate attributeName="opacity" values="0;0.8;0" dur="14s" repeatCount="indefinite"/></circle>
      <circle cx="360" cy="580" r="1.2" opacity="0.5"><animate attributeName="cy" values="580;40;580" dur="17s" repeatCount="indefinite"/><animate attributeName="opacity" values="0;0.7;0" dur="17s" repeatCount="indefinite"/></circle>
      <circle cx="820" cy="560" r="1.4" opacity="0.5" fill="#7C3AED"><animate attributeName="cy" values="560;30;560" dur="15s" repeatCount="indefinite"/><animate attributeName="opacity" values="0;0.7;0" dur="15s" repeatCount="indefinite"/></circle>
      <circle cx="1000" cy="590" r="1.8" opacity="0.5" fill="#10B981"><animate attributeName="cy" values="590;50;590" dur="19s" repeatCount="indefinite"/><animate attributeName="opacity" values="0;0.8;0" dur="19s" repeatCount="indefinite"/></circle>
      <circle cx="600" cy="600" r="1.3" opacity="0.4"><animate attributeName="cy" values="600;20;600" dur="21s" repeatCount="indefinite"/><animate attributeName="opacity" values="0;0.6;0" dur="21s" repeatCount="indefinite"/></circle>
    </g>

    <!-- ================= LEFT PANEL ================= -->
    <g>
      <rect x="24" y="24" width="430" height="562" rx="20" fill="url(#panelFill)"/>
      <rect x="24" y="24" width="430" height="562" rx="20" fill="url(#glassSheen)"/>
      <rect x="24" y="24" width="430" height="562" rx="20" fill="none" stroke="rgba(255,255,255,0.08)" stroke-width="1.5"/>
      <rect x="24" y="24" width="430" height="562" rx="20" fill="none" stroke="url(#accentGrad)" stroke-width="2" stroke-dasharray="60 1924" opacity="0.9">
        <animate attributeName="stroke-dashoffset" values="0;-1984" dur="5s" repeatCount="indefinite"/>
      </rect>

      <g clip-path="url(#leftClip)">
        <!-- scanline -->
        <rect x="24" y="24" width="430" height="6" fill="url(#scanGrad)">
          <animate attributeName="y" values="24;586;24" dur="6s" repeatCount="indefinite"/>
        </rect>

        <!-- ASCII portrait, floating -->
        <g font-family="'SFMono-Regular',Consolas,Menlo,monospace" font-size="15" fill="url(#asciiGrad)" filter="url(#glowSoft)">
          <animateTransform attributeName="transform" type="translate" values="0,0; 0,-6; 0,0" dur="4.5s" repeatCount="indefinite"/>

          <text x="239" y="88" text-anchor="middle" opacity="0"><tspan>      .-=======-.</tspan><animate attributeName="opacity" values="0;1" begin="0.2s" dur="0.4s" fill="freeze"/></text>
          <text x="239" y="112" text-anchor="middle" opacity="0"><tspan>    .'   .----.  '.</tspan><animate attributeName="opacity" values="0;1" begin="0.5s" dur="0.4s" fill="freeze"/></text>
          <text x="239" y="136" text-anchor="middle" opacity="0"><tspan>   /    /      \   \</tspan><animate attributeName="opacity" values="0;1" begin="0.8s" dur="0.4s" fill="freeze"/></text>
          <text x="239" y="160" text-anchor="middle" opacity="0"><tspan>  |    | () ()  |   |</tspan><animate attributeName="opacity" values="0;1" begin="1.1s" dur="0.4s" fill="freeze"/></text>
          <text x="239" y="184" text-anchor="middle" opacity="0"><tspan>  |    |   ᴗ    |   |</tspan><animate attributeName="opacity" values="0;1" begin="1.4s" dur="0.4s" fill="freeze"/></text>
          <text x="239" y="208" text-anchor="middle" opacity="0"><tspan>   \    \ ____ /   /</tspan><animate attributeName="opacity" values="0;1" begin="1.7s" dur="0.4s" fill="freeze"/></text>
          <text x="239" y="232" text-anchor="middle" opacity="0"><tspan>    '.  '------'  .'</tspan><animate attributeName="opacity" values="0;1" begin="2.0s" dur="0.4s" fill="freeze"/></text>
          <text x="239" y="256" text-anchor="middle" opacity="0"><tspan>      '-========-'</tspan><animate attributeName="opacity" values="0;1" begin="2.3s" dur="0.4s" fill="freeze"/></text>
          <text x="239" y="292" text-anchor="middle" font-size="16" font-weight="bold" opacity="0"><tspan>&lt; HASEEB KHAN &gt;</tspan><animate attributeName="opacity" values="0;1" begin="2.7s" dur="0.5s" fill="freeze"/></text>
          <text x="239" y="320" text-anchor="middle" opacity="0"><tspan>-------------------------</tspan><animate attributeName="opacity" values="0;1" begin="3.1s" dur="0.4s" fill="freeze"/></text>
          <text x="239" y="346" text-anchor="middle" font-size="14" opacity="0"><tspan>[ FRONTEND // AI-ML ]</tspan><animate attributeName="opacity" values="0;1" begin="3.4s" dur="0.4s" fill="freeze"/></text>
          <text x="239" y="372" text-anchor="middle" font-size="14" opacity="0"><tspan>[ DATA SCIENCE // APPS ]</tspan><animate attributeName="opacity" values="0;1" begin="3.7s" dur="0.4s" fill="freeze"/></text>
          <text x="239" y="398" text-anchor="middle" opacity="0"><tspan>-------------------------</tspan><animate attributeName="opacity" values="0;1" begin="4.0s" dur="0.4s" fill="freeze"/></text>
          <text x="239" y="426" text-anchor="middle" font-size="14" opacity="0"><tspan>.... _/\_ ....</tspan><animate attributeName="opacity" values="0;1" begin="4.3s" dur="0.4s" fill="freeze"/></text>
          <text x="239" y="454" text-anchor="middle" font-size="13" opacity="0"><tspan>&lt;code&gt; build . ship . repeat &lt;/code&gt;</tspan><animate attributeName="opacity" values="0;1" begin="4.6s" dur="0.4s" fill="freeze"/></text>

          <!-- blinking cursor -->
          <rect x="228" y="462" width="9" height="16" fill="#22D3EE" opacity="0">
            <animate attributeName="opacity" values="0;0;1" begin="5.0s" dur="0.1s" fill="freeze"/>
            <animate attributeName="opacity" values="1;0;1" begin="5.0s" dur="1s" repeatCount="indefinite"/>
          </rect>
        </g>

        <!-- terminal prompt tag -->
        <text x="46" y="562" font-family="'SFMono-Regular',Consolas,monospace" font-size="11" fill="#94A3B8" opacity="0">
          root@haseeb:~$ whoami
          <animate attributeName="opacity" values="0;1" begin="5.2s" dur="0.5s" fill="freeze"/>
        </text>
      </g>
    </g>

    <!-- ================= RIGHT PANEL ================= -->
    <g>
      <rect x="470" y="24" width="686" height="562" rx="20" fill="url(#panelFill)"/>
      <rect x="470" y="24" width="686" height="562" rx="20" fill="url(#glassSheen)"/>
      <rect x="470" y="24" width="686" height="562" rx="20" fill="none" stroke="rgba(255,255,255,0.08)" stroke-width="1.5"/>
      <rect x="470" y="24" width="686" height="562" rx="20" fill="none" stroke="url(#accentGrad)" stroke-width="2" stroke-dasharray="60 2436" opacity="0.9">
        <animate attributeName="stroke-dashoffset" values="0;-2496" dur="6s" repeatCount="indefinite"/>
      </rect>

      <g clip-path="url(#rightClip)">
        <!-- title bar -->
        <rect x="470" y="24" width="686" height="40" rx="20" fill="#FFFFFF" opacity="0.03"/>
        <line x1="470" y1="64" x2="1156" y2="64" stroke="rgba(255,255,255,0.08)" stroke-width="1"/>
        <circle cx="498" cy="44" r="6" fill="#FF5F56"/>
        <circle cx="518" cy="44" r="6" fill="#FFBD2E"/>
        <circle cx="538" cy="44" r="6" fill="#27C93F"/>
        <text x="813" y="49" text-anchor="middle" font-family="'SFMono-Regular',Consolas,monospace" font-size="12" fill="#94A3B8">haseeb@portfolio  ~  zsh</text>

        <!-- scanline right -->
        <rect x="470" y="64" width="686" height="5" fill="url(#scanGrad)">
          <animate attributeName="y" values="64;586;64" dur="7s" repeatCount="indefinite"/>
        </rect>

        <g font-family="'SFMono-Regular',Consolas,Menlo,monospace">
          <!-- greeting -->
          <text x="494" y="106" font-size="26" fill="#F8FAFC" opacity="0">Hi
            <animate attributeName="opacity" values="0;1" begin="0.2s" dur="0.4s" fill="freeze"/>
          </text>
          <text x="536" y="106" font-size="26" opacity="0">👋
            <animate attributeName="opacity" values="0;1" begin="0.4s" dur="0.3s" fill="freeze"/>
            <animateTransform attributeName="transform" type="rotate" values="0 546 96;18 546 96;0 546 96;18 546 96;0 546 96" begin="0.6s" dur="1.6s"/>
          </text>

          <text x="494" y="146" font-size="30" font-weight="bold" fill="url(#accentGrad)" filter="url(#glowSoft)" opacity="0">I'm Haseeb Khan
            <animate attributeName="opacity" values="0;1" begin="0.9s" dur="0.5s" fill="freeze"/>
          </text>

          <!-- typing roles cycle -->
          <g font-size="18" fill="#22D3EE">
            <text x="494" y="184" opacity="0">
              <tspan>Frontend Developer</tspan>
              <animate attributeName="opacity" values="0;1;1;0;0;0;0;0" keyTimes="0;0.02;0.20;0.24;0.25;0.75;0.98;1" begin="1.4s" dur="12s" repeatCount="indefinite"/>
            </text>
            <text x="494" y="184" opacity="0">
              <tspan>AI / ML Enthusiast</tspan>
              <animate attributeName="opacity" values="0;0;0;0;1;1;0;0" keyTimes="0;0.25;0.26;0.27;0.28;0.48;0.50;1" begin="1.4s" dur="12s" repeatCount="indefinite"/>
            </text>
            <text x="494" y="184" opacity="0">
              <tspan>Android App Developer</tspan>
              <animate attributeName="opacity" values="0;0;0;0;0;1;1;0" keyTimes="0;0.50;0.51;0.52;0.53;0.54;0.74;0.76" begin="1.4s" dur="12s" repeatCount="indefinite"/>
            </text>
            <text x="494" y="184" opacity="0">
              <tspan>Data Science Enthusiast</tspan>
              <animate attributeName="opacity" values="0;0;0;0;0;0;1;1;0" keyTimes="0;0.75;0.76;0.77;0.78;0.79;0.80;0.99;1" begin="1.4s" dur="12s" repeatCount="indefinite"/>
            </text>
          </g>
          <rect x="672" y="169" width="9" height="18" fill="#22D3EE">
            <animate attributeName="opacity" values="1;0;1" begin="1.4s" dur="0.9s" repeatCount="indefinite"/>
          </rect>

          <line x1="494" y1="206" x2="1132" y2="206" stroke="rgba(255,255,255,0.08)" stroke-width="1"/>

          <!-- info rows sequential reveal -->
          <g font-size="14" fill="#F8FAFC">
            <text x="494" y="236" opacity="0"><tspan fill="#94A3B8">📍 Location </tspan><tspan dx="6">Pakistan</tspan>
              <animate attributeName="opacity" values="0;1" begin="2.6s" dur="0.4s" fill="freeze"/>
            </text>
            <text x="494" y="266" opacity="0"><tspan fill="#94A3B8">🎓 Education </tspan><tspan dx="6">BSCS</tspan>
              <animate attributeName="opacity" values="0;1" begin="2.9s" dur="0.4s" fill="freeze"/>
            </text>
            <text x="494" y="296" opacity="0"><tspan fill="#94A3B8">🎯 Current Focus </tspan><tspan dx="6">AI / Machine Learning</tspan>
              <animate attributeName="opacity" values="0;1" begin="3.2s" dur="0.4s" fill="freeze"/>
            </text>
            <text x="494" y="326" opacity="0"><tspan fill="#94A3B8">🔗 Portfolio </tspan><tspan dx="6" fill="#22D3EE">yourportfolio.com</tspan>
              <animate attributeName="opacity" values="0;1" begin="3.5s" dur="0.4s" fill="freeze"/>
            </text>
            <text x="494" y="356" opacity="0"><tspan fill="#94A3B8">✉️ Email </tspan><tspan dx="6" fill="#22D3EE">your@email.com</tspan>
              <animate attributeName="opacity" values="0;1" begin="3.8s" dur="0.4s" fill="freeze"/>
            </text>
          </g>

          <line x1="494" y1="378" x2="1132" y2="378" stroke="rgba(255,255,255,0.08)" stroke-width="1"/>

          <text x="494" y="404" font-size="13" fill="#94A3B8" letter-spacing="2" opacity="0">SKILLS
            <animate attributeName="opacity" values="0;1" begin="4.1s" dur="0.4s" fill="freeze"/>
          </text>

          <!-- Skill pills -->
          <g font-size="13" font-weight="600">
            <!-- Row 1 -->
            <g opacity="0"><animate attributeName="opacity" values="0;1" begin="4.3s" dur="0.4s" fill="freeze"/>
              <rect x="494" y="418" width="53" height="30" rx="15" fill="rgba(124,58,237,0.14)" stroke="url(#accentGrad)" stroke-width="1"/>
              <text x="520" y="438" text-anchor="middle" fill="#F8FAFC">C++</text>
              <rect x="557" y="418" width="60" height="30" rx="15" fill="rgba(124,58,237,0.14)" stroke="url(#accentGrad)" stroke-width="1"/>
              <text x="587" y="438" text-anchor="middle" fill="#F8FAFC">Java</text>
              <rect x="627" y="418" width="102" height="30" rx="15" fill="rgba(34,211,238,0.14)" stroke="url(#accentGrad)" stroke-width="1"/>
              <text x="678" y="438" text-anchor="middle" fill="#F8FAFC">JavaScript</text>
              <rect x="739" y="418" width="74" height="30" rx="15" fill="rgba(34,211,238,0.14)" stroke="url(#accentGrad)" stroke-width="1"/>
              <text x="776" y="438" text-anchor="middle" fill="#F8FAFC">Python</text>
              <rect x="823" y="418" width="53" height="30" rx="15" fill="rgba(16,185,129,0.14)" stroke="url(#accentGrad)" stroke-width="1"/>
              <text x="849" y="438" text-anchor="middle" fill="#F8FAFC">CSS</text>
              <animateTransform attributeName="transform" type="scale" additive="sum" values="1;1.02;1" dur="3s" repeatCount="indefinite"/>
            </g>
            <!-- Row 2 -->
            <g opacity="0"><animate attributeName="opacity" values="0;1" begin="4.6s" dur="0.4s" fill="freeze"/>
              <rect x="494" y="462" width="60" height="30" rx="15" fill="rgba(124,58,237,0.14)" stroke="url(#accentGrad)" stroke-width="1"/>
              <text x="524" y="482" text-anchor="middle" fill="#F8FAFC">HTML</text>
              <rect x="564" y="462" width="67" height="30" rx="15" fill="rgba(34,211,238,0.14)" stroke="url(#accentGrad)" stroke-width="1"/>
              <text x="597" y="482" text-anchor="middle" fill="#F8FAFC">React</text>
              <rect x="641" y="462" width="74" height="30" rx="15" fill="rgba(16,185,129,0.14)" stroke="url(#accentGrad)" stroke-width="1"/>
              <text x="678" y="482" text-anchor="middle" fill="#F8FAFC">Pandas</text>
              <rect x="725" y="462" width="67" height="30" rx="15" fill="rgba(16,185,129,0.14)" stroke="url(#accentGrad)" stroke-width="1"/>
              <text x="758" y="482" text-anchor="middle" fill="#F8FAFC">NumPy</text>
              <rect x="802" y="462" width="102" height="30" rx="15" fill="rgba(124,58,237,0.14)" stroke="url(#accentGrad)" stroke-width="1"/>
              <text x="853" y="482" text-anchor="middle" fill="#F8FAFC">Matplotlib</text>
            </g>
            <!-- Row 3 -->
            <g opacity="0"><animate attributeName="opacity" values="0;1" begin="4.9s" dur="0.4s" fill="freeze"/>
              <rect x="494" y="506" width="81" height="30" rx="15" fill="rgba(34,211,238,0.14)" stroke="url(#accentGrad)" stroke-width="1"/>
              <text x="534" y="526" text-anchor="middle" fill="#F8FAFC">Seaborn</text>
              <rect x="585" y="506" width="116" height="30" rx="15" fill="rgba(16,185,129,0.14)" stroke="url(#accentGrad)" stroke-width="1"/>
              <text x="643" y="526" text-anchor="middle" fill="#F8FAFC">Scikit-learn</text>
              <rect x="711" y="506" width="81" height="30" rx="15" fill="rgba(124,58,237,0.14)" stroke="url(#accentGrad)" stroke-width="1"/>
              <text x="751" y="526" text-anchor="middle" fill="#F8FAFC">Android</text>
            </g>
          </g>

          <line x1="494" y1="548" x2="1132" y2="548" stroke="rgba(255,255,255,0.08)" stroke-width="1"/>

          <!-- Social icons -->
          <g opacity="0" filter="url(#glowSoft)">
            <animate attributeName="opacity" values="0;1" begin="5.2s" dur="0.5s" fill="freeze"/>
            <g>
              <circle cx="574" cy="578" r="18" fill="none" stroke="url(#accentGrad)" stroke-width="1.5"/>
              <path d="M574 566 a12 12 0 0 0 -3.8 23.4 c0.6 0.1 0.8 -0.3 0.8 -0.6 v-2.2 c-3.3 0.7 -4 -1.6 -4 -1.6 c-0.6 -1.4 -1.4 -1.8 -1.4 -1.8 c-1.1 -0.8 0.1 -0.7 0.1 -0.7 c1.3 0.1 1.9 1.3 1.9 1.3 c1.1 1.9 2.9 1.4 3.6 1 c0.1 -0.8 0.4 -1.4 0.8 -1.7 c-2.7 -0.3 -5.4 -1.3 -5.4 -5.9 c0 -1.3 0.5 -2.4 1.2 -3.2 c-0.1 -0.3 -0.5 -1.5 0.1 -3.2 c0 0 1 -0.3 3.3 1.2 c1 -0.3 2 -0.4 3 -0.4 c1 0 2 0.1 3 0.4 c2.3 -1.5 3.3 -1.2 3.3 -1.2 c0.6 1.7 0.2 2.9 0.1 3.2 c0.8 0.8 1.2 1.9 1.2 3.2 c0 4.6 -2.8 5.6 -5.5 5.9 c0.4 0.4 0.8 1.1 0.8 2.2 v3.3 c0 0.3 0.2 0.7 0.8 0.6 A12 12 0 0 0 574 566 z" fill="#F8FAFC"/>
            </g>
            <g>
              <circle cx="666" cy="578" r="18" fill="none" stroke="url(#accentGrad)" stroke-width="1.5"/>
              <rect x="658" y="570" width="4" height="14" fill="#F8FAFC"/>
              <circle cx="660" cy="565" r="2.2" fill="#F8FAFC"/>
              <path d="M666 574 v10 h4 v-8 c0 -2 1 -3 3 -3 s3 1 3 3 v8 h4 v-9 c0 -4 -2 -6 -6 -6 c-2.2 0 -3.5 1 -4 2 z" fill="#F8FAFC"/>
            </g>
            <g>
              <circle cx="758" cy="578" r="18" fill="none" stroke="url(#accentGrad)" stroke-width="1.5"/>
              <path d="M750 570 c1.5 1.7 3.4 2.8 5.6 3.1 c-0.1 -0.5 -0.1 -0.9 0 -1.4 c0.4 -1.9 2.2 -3.2 4.1 -2.9 c0.9 0.1 1.7 0.6 2.2 1.3 c1 -0.2 1.9 -0.5 2.7 -1 c-0.3 1 -1 1.8 -1.9 2.3 c0.9 -0.1 1.7 -0.3 2.5 -0.7 c-0.6 0.9 -1.3 1.6 -2.1 2.2 c0 0.2 0 0.4 0 0.6 c0 6 -4.6 12.9 -12.9 12.9 c-2.6 0 -5 -0.8 -7 -2.1 c0.4 0 0.7 0.1 1.1 0.1 c2.1 0 4.1 -0.7 5.6 -1.9 c-2 0 -3.7 -1.4 -4.3 -3.2 c0.3 0.1 0.6 0.1 0.9 0.1 c0.4 0 0.8 0 1.2 -0.1 c-2.1 -0.4 -3.7 -2.3 -3.7 -4.6 v-0.1 c0.6 0.3 1.3 0.6 2.1 0.6 c-1.2 -0.8 -2 -2.2 -2 -3.8 c0 -0.8 0.2 -1.6 0.6 -2.3 c2.3 2.8 5.7 4.6 9.5 4.8 c-0.1 -0.3 -0.1 -0.6 -0.1 -1 c0 -0.4 0.1 -0.8 0.2 -1.1 z" fill="#F8FAFC"/>
            </g>
            <g>
              <circle cx="850" cy="578" r="18" fill="none" stroke="url(#accentGrad)" stroke-width="1.5"/>
              <circle cx="850" cy="578" r="9" fill="none" stroke="#F8FAFC" stroke-width="2"/>
              <line x1="850" y1="569" x2="850" y2="587" stroke="#F8FAFC" stroke-width="1.4"/>
              <path d="M841 578 a9 4.2 0 0 0 18 0" fill="none" stroke="#F8FAFC" stroke-width="1.2"/>
              <path d="M841 578 a9 4.2 0 0 1 18 0" fill="none" stroke="#F8FAFC" stroke-width="1.2"/>
            </g>
          </g>
        </g>
      </g>
    </g>

    <!-- outer border shimmer for whole card -->
    <rect x="1.5" y="1.5" width="1177" height="607" rx="27" fill="none" stroke="rgba(255,255,255,0.06)" stroke-width="1.5"/>
  </g>
</svg>
